<svg width="60" height="63" viewBox="0 0 60 63" fill="none" xmlns="http://www.w3.org/2000/svg">
<path d="M54.375 31.105H5.625C4.13316 31.105 2.70242 31.8072 1.64752 33.0572C0.592632 34.3072 0 36.0026 0 37.7704C0 39.5381 0.592632 41.2335 1.64752 42.4835C2.70242 43.7335 4.13316 44.4357 5.625 44.4357H54.375C55.8668 44.4357 57.2976 43.7335 58.3525 42.4835C59.4074 41.2335 60 39.5381 60 37.7704C60 36.0026 59.4074 34.3072 58.3525 33.0572C57.2976 31.8072 55.8668 31.105 54.375 31.105ZM56.25 48.8793H3.75C3.25272 48.8793 2.77581 49.1134 2.42417 49.53C2.07254 49.9467 1.875 50.5118 1.875 51.1011V53.3229C1.875 55.6799 2.66518 57.9404 4.0717 59.607C5.47822 61.2737 7.38588 62.21 9.375 62.21H50.625C52.6141 62.21 54.5218 61.2737 55.9283 59.607C57.3348 57.9404 58.125 55.6799 58.125 53.3229V51.1011C58.125 50.5118 57.9275 49.9467 57.5758 49.53C57.2242 49.1134 56.7473 48.8793 56.25 48.8793ZM6.87187 26.6614H53.1281C57.1793 26.6614 59.5289 20.5654 57.2086 16.1246C52.5 7.10971 42.1348 0.0138862 30 0C17.8664 0.0138862 7.5 7.10971 2.79141 16.1232C0.46875 20.564 2.8207 26.6614 6.87187 26.6614ZM45 11.1089C45.3708 11.1089 45.7334 11.2392 46.0417 11.4834C46.35 11.7275 46.5904 12.0745 46.7323 12.4805C46.8742 12.8865 46.9113 13.3332 46.839 13.7642C46.7666 14.1951 46.5881 14.591 46.3258 14.9018C46.0636 15.2125 45.7295 15.4241 45.3658 15.5098C45.0021 15.5955 44.6251 15.5515 44.2825 15.3834C43.9399 15.2152 43.647 14.9304 43.441 14.5651C43.235 14.1997 43.125 13.7701 43.125 13.3307C43.125 12.7415 43.3225 12.1763 43.6742 11.7597C44.0258 11.343 44.5027 11.1089 45 11.1089ZM30 6.66536C30.3708 6.66536 30.7334 6.79566 31.0417 7.0398C31.35 7.28393 31.5904 7.63092 31.7323 8.0369C31.8742 8.44288 31.9113 8.88961 31.839 9.32059C31.7666 9.75158 31.5881 10.1475 31.3258 10.4582C31.0636 10.7689 30.7295 10.9805 30.3658 11.0662C30.0021 11.152 29.6251 11.108 29.2825 10.9398C28.9399 10.7716 28.647 10.4869 28.441 10.1215C28.235 9.75613 28.125 9.32657 28.125 8.88714C28.125 8.29789 28.3225 7.73277 28.6742 7.3161C29.0258 6.89944 29.5027 6.66536 30 6.66536ZM15 11.1089C15.3708 11.1089 15.7334 11.2392 16.0417 11.4834C16.35 11.7275 16.5904 12.0745 16.7323 12.4805C16.8742 12.8865 16.9113 13.3332 16.839 13.7642C16.7666 14.1951 16.588 14.591 16.3258 14.9018C16.0636 15.2125 15.7295 15.4241 15.3658 15.5098C15.0021 15.5955 14.6251 15.5515 14.2825 15.3834C13.9399 15.2152 13.647 14.9304 13.441 14.5651C13.235 14.1997 13.125 13.7701 13.125 13.3307C13.125 12.7415 13.3225 12.1763 13.6742 11.7597C14.0258 11.343 14.5027 11.1089 15 11.1089Z" fill="white"/>
</svg>
