<svg width="61" height="70" viewBox="0 0 61 70" fill="none" xmlns="http://www.w3.org/2000/svg">
<path d="M44.8975 0.768845C46.0312 -0.256282 47.8693 -0.256282 49.003 0.768845C50.1367 1.79397 50.1367 3.45603 49.003 4.48116L44.2771 8.75H52.7562C53.9831 8.75 55.0775 9.44739 55.4901 10.4921L60.3284 22.7421C61.0036 24.4516 59.6021 26.25 57.5946 26.25H53.5511L47.4068 61.4225C46.5964 66.5508 41.7594 70 35.9116 70H25.0884C19.2405 70 14.4033 66.5507 13.5995 61.4608L7.44782 26.25H3.40544C1.39794 26.25 -0.00362021 24.4516 0.671578 22.7421L5.50989 10.4921C5.92252 9.44739 7.01692 8.75 8.24376 8.75H36.0674L44.8975 0.768845ZM47.6716 26.25H13.3235L19.3408 60.68C19.7251 63.1127 22.0212 64.75 25.0884 64.75H35.9116C38.9787 64.75 41.2748 63.1127 41.6656 60.6416L47.6716 26.25ZM50.7104 14H10.2895L7.5248 21H53.4752L50.7104 14Z" fill="white"/>
</svg>
