<svg width="71" height="70" viewBox="0 0 71 70" fill="none" xmlns="http://www.w3.org/2000/svg">
<path d="M70.5 11.8312L62.8945 6.99533L61.8212 8.77217L54.764 8.55283L54.9472 7.31617L46.5705 3.22L45.3852 11.263L43.0542 9.16067L43.8953 3.75783L35.0835 2.17817L34.569 5.4215L34.6122 3.0135L27.6577 5.64667L28.2958 1.582L19.4852 0L19.3113 1.00683L10.4505 5.43317L10.4657 6.33617L0.5 7.07117L5.09083 16.1408L0.665667 19.5685L6.10933 31.0567H4.406L9.4635 64.9355C19.1457 71.6882 51.6268 71.6882 61.3102 64.9355L66.1728 32.3458L70.2258 23.5725L65.9348 19.4553L70.5 11.8312ZM63.577 10.1582L67.3535 12.5627L64.9478 16.6168L65.5055 15.4093L62.17 12.6222L63.577 10.1582ZM62.7743 16.0195L60.2613 20.9848L56.7275 18.4438L58.9033 12.9162L62.7743 16.0195ZM54.4642 10.7893L57.2373 10.8663L53.6533 19.8835L54.4642 10.7893ZM48.2633 6.59633L52.4843 8.64617L51.3433 21.3092L48.352 19.2173L49.5047 14.7245L47.4385 13.0223L48.2633 6.59633ZM43.319 12.4437L46.9578 15.554L46.3582 17.9515L43.823 16.4022L43.7308 18.263C43.7308 18.263 42.6517 27.6803 41.9797 30.7627C41.5095 32.9163 39.455 39.2128 39.455 39.2128C39.455 39.2128 39.6288 33.4763 39.7712 31.5688C39.9298 29.456 40.4572 25.2502 40.8282 23.1665C41.3135 20.4563 43.319 12.4437 43.319 12.4437ZM35.2667 20.951C35.4358 16.8922 36.9035 4.79033 36.9035 4.79033L41.3182 5.5825C41.3182 5.5825 37.9278 26.6327 37.3947 33.7132C37.2418 35.749 37.299 41.8787 37.299 41.8787C36.9502 41.9055 36.5955 41.9183 36.2408 41.9312L35.5362 35.7058C35.535 35.7058 35.1138 24.6377 35.2667 20.951ZM34.0125 41.9148C33.8678 41.9067 33.722 41.9008 33.5785 41.8903L33.2845 35.3722L34.0125 41.9148ZM32.3092 6.2405L33.0348 21.1435L32.9438 25.3785L31.3058 23.9692L30.3772 13.0982L27.8712 11.6853L27.7778 8.015L32.3092 6.2405ZM21.304 2.61217L25.7187 3.4055L24.8168 10.0543L20.5363 7.94617L21.304 2.61217ZM17.3735 4.3995C17.3735 4.3995 17.5042 11.6807 17.6675 14.1015C17.7912 15.9238 18.4305 21.3663 18.4305 21.3663L17.6348 16.8327L14.9293 16.0288L12.8468 10.9107L12.6998 6.77367L17.3735 4.3995ZM4.14467 9.0335L9.37133 8.66133L12.1888 15.1912L8.30617 13.9638L9.26983 20.5298L4.14467 9.0335ZM8.1335 31.0567L3.24983 20.3595L5.981 18.263L9.551 31.0567H8.1335ZM14.4125 31.0567L14.3892 31.003L11.3337 19.4308L10.9615 17.1698L15.6422 18.5932C15.6422 18.5932 16.7435 24.1722 17.2463 25.998C17.601 27.2848 18.9462 31.0567 18.9462 31.0567H14.4125ZM19.0652 31.4125L19.5155 32.7518L21.2328 36.4957C19.9285 34.9907 19.155 33.2617 19.0652 31.4125ZM19.9157 13.9732L20.4838 8.3615L20.8035 10.0543L22.3645 30.751L19.9157 13.9732ZM25.3465 32.9595C25.2007 34.5508 25.1272 39.3505 25.1272 39.3505L24.1262 37.471C24.1262 37.471 24.3268 35.6837 24.3513 35.0863C24.531 30.7825 24.4703 22.1538 24.1693 17.8558C24.062 16.3392 23.3853 11.8242 23.3853 11.8242L28.311 14.4923L28.9888 21.8248L27.2598 20.16C27.2598 20.16 25.6417 29.7372 25.3465 32.9595ZM27.7545 30.9715C27.8863 29.3662 28.6447 24.5898 28.6447 24.5898L31.6745 27.2568C31.6745 27.2568 31.118 33.4308 31.0515 35.4958C31.0107 36.7815 31.1087 40.642 31.1087 40.642L31.1927 41.5858C29.8988 41.3572 28.661 41.0328 27.513 40.6117C27.5118 40.6117 27.5573 33.3725 27.7545 30.9715ZM38.2767 65.0078L36.655 64.0815L35.9748 63.6988C35.906 63.8458 35.7602 63.952 35.5945 63.9485L35.171 63.952C35.0042 63.952 34.8607 63.8482 34.793 63.6988L34.114 64.0838L32.4888 65.0078V63.161V61.3142L34.1163 62.2393L34.7953 62.6243C34.8618 62.475 35.0053 62.3712 35.171 62.3747L35.5968 62.3712C35.7637 62.3747 35.9072 62.4727 35.976 62.6267L36.655 62.2393L38.2767 61.3142L38.279 63.1587L38.2767 65.0078ZM42.43 52.3483C42.3705 52.3833 42.3157 52.4277 42.2655 52.4802C42.4358 53.0868 42.528 53.7215 42.5292 54.383C42.5257 58.289 39.329 61.4553 35.3857 61.4588C31.4377 61.46 28.2387 58.2937 28.2387 54.383C28.241 53.7227 28.3332 53.088 28.5012 52.4825C28.451 52.4277 28.3985 52.3833 28.3367 52.3507C28.1547 52.2433 28.1862 52.3425 28.1862 52.0882V51.9563C28.1862 51.8513 28.1978 51.8303 28.2538 51.8023C28.3542 51.7522 28.4557 51.702 28.563 51.6705C28.64 51.6402 28.7275 51.6157 28.8173 51.5947C29.9105 49.07 32.441 47.3037 35.3868 47.3037C38.3292 47.306 40.8585 49.0735 41.9505 51.5935C42.0427 51.6168 42.1278 51.6413 42.2083 51.667C42.3133 51.7043 42.4172 51.751 42.5163 51.8012C42.5723 51.8303 42.5852 51.8525 42.5863 51.9575L42.5852 52.0917C42.5828 52.3437 42.6155 52.2433 42.43 52.3483ZM46.588 38.9818C45.0002 39.9805 43.1137 40.7657 41.0253 41.2802L41.4733 40.1882C41.4733 40.1882 43.6235 33.3293 44.2197 31.01C44.3433 30.5223 44.5545 29.5342 44.642 29.0395C45.0258 26.8555 45.8437 20.251 45.8437 20.251L50.4987 23.443C50.4987 23.443 49.6237 28.5308 49.2165 30.2027C48.674 32.4287 46.588 38.9818 46.588 38.9818ZM55.2237 24.9772C55.0312 26.3982 54.2063 30.6192 54.2063 30.6192L53.8715 31.0567H51.7307C51.7307 32.6678 51.194 34.1915 50.2537 35.5658L50.0052 35.8692L52.0212 27.762L55.5807 21.0537C55.5807 21.0537 55.3555 24.0007 55.2237 24.9772ZM59.7807 27.398C59.5928 28.3208 58.8742 31.0567 58.8742 31.0567H56.3705C56.3705 31.0567 57.1487 27.2498 57.34 25.9688C57.4905 24.9608 57.7787 21.9147 57.7787 21.9147L60.3407 23.9027C60.3407 23.9027 59.9568 26.5312 59.7807 27.398ZM67.2882 23.9423L64.1708 31.0567H61.0383C61.0383 31.0567 61.7197 29.0255 61.8842 28.3313C62.1012 27.405 62.4943 24.5712 62.4943 24.5712L64.4765 21.196L67.2882 23.9423Z" fill="white"/>
<path d="M32.1704 51.4187C33.0547 51.4969 33.7909 51.6917 34.3941 51.9997C34.9622 52.2844 35.8092 52.2844 36.3762 52.002C36.9794 51.6964 37.7167 51.4969 38.5999 51.4187C39.1494 51.372 40.0897 51.3545 40.9402 51.4339C39.8762 49.4739 37.7891 48.145 35.3857 48.145C32.9801 48.1427 30.8941 49.475 29.8301 51.4339C30.6782 51.358 31.6209 51.3744 32.1704 51.4187Z" fill="white"/>
<path d="M40.2194 55.8936C39.4179 56.1922 38.5208 56.1806 37.7263 55.8667C37.2923 55.6941 36.9108 55.4246 36.6063 54.9836C36.0731 54.2089 36.2352 53.7224 35.9564 53.0597C35.7196 52.4811 35.0523 52.4811 34.8073 53.0597C34.5354 53.7224 34.6929 54.2089 34.1598 54.9812C33.8588 55.4246 33.4796 55.6929 33.0398 55.8667C32.2464 56.1817 31.3528 56.1922 30.5489 55.8936C29.8034 55.6182 29.3064 55.0746 29.0859 54.2439C29.0836 54.2871 29.0836 54.3372 29.0848 54.3827C29.0848 57.8314 31.9022 60.6279 35.3847 60.6244C38.8603 60.6244 41.6824 57.8291 41.6824 54.3827C41.6836 54.3372 41.6824 54.2859 41.6813 54.2392C41.4631 55.0781 40.9649 55.6147 40.2194 55.8936ZM37.2386 58.4334C36.7638 58.8184 36.0754 59.0459 35.3859 59.0424C34.6941 59.0459 34.0081 58.8184 33.5321 58.4334C33.0561 58.0519 32.7983 57.5129 32.8554 57.0194C33.1261 57.4394 33.5088 57.7509 33.9474 57.9609C34.3873 58.1744 34.8866 58.2771 35.3859 58.2771C35.8853 58.2771 36.3823 58.1709 36.8221 57.9586C37.2619 57.7521 37.6423 57.4417 37.9141 57.0206C37.9724 57.5152 37.7158 58.0519 37.2386 58.4334Z" fill="white"/>
</svg>
