<svg width="52" height="63" viewBox="0 0 52 63" fill="none" xmlns="http://www.w3.org/2000/svg">
<path d="M26 62.21C21.4234 62.21 17.191 61.0861 13.3028 58.8383C9.41472 56.5904 6.34674 53.5225 4.09892 49.6343C1.8511 45.7462 0.727188 41.5138 0.727188 36.9372C0.727188 35.1551 0.990447 33.5452 1.51696 32.1074C2.04348 30.6696 2.6915 29.3837 3.46103 28.2497C4.23055 27.1156 5.00008 25.8803 5.7696 24.5438C6.53912 23.2072 7.18715 21.4454 7.71366 19.2584C8.24018 17.0713 8.50344 14.54 8.50344 11.6644C8.50344 12.0694 8.71607 12.4643 9.14133 12.849C9.5666 13.2338 10.0729 13.6186 10.6601 14.0033C11.2474 14.3881 11.8954 15.0665 12.6042 16.0385C13.313 17.0105 13.8901 18.1446 14.3356 19.4406C14.9836 21.4252 16.0367 23.2174 17.4947 24.8172C18.9528 26.417 20.4918 27.2169 22.1119 27.2169C24.2179 27.2169 26.0101 26.0221 27.4884 23.6325C28.9667 21.2429 30.0603 18.0231 30.769 13.9729C31.4778 9.92282 31.8322 5.26517 31.8322 0C32.4397 1.78206 33.3712 3.64512 34.6268 5.58918C35.8823 7.53324 37.2087 9.29505 38.606 10.8746C40.0033 12.4542 41.4715 14.2565 43.0105 16.2815C44.5496 18.3066 45.9165 20.281 47.1113 22.2048C48.3061 24.1287 49.2984 26.3765 50.0882 28.9483C50.8779 31.5201 51.2728 34.1831 51.2728 36.9372C51.2728 41.5138 50.1489 45.7462 47.9011 49.6343C45.6533 53.5225 42.5853 56.5904 38.6972 58.8383C34.809 61.0861 30.5766 62.21 26 62.21ZM33.7762 23.3288C31.7107 28.8369 29.7666 32.7251 27.9441 34.9931C27.1745 35.9652 26.2126 36.8359 25.0583 37.6055C23.9041 38.375 22.851 38.9926 21.8992 39.4584C20.9475 39.9242 20.0261 40.4507 19.135 41.0379C18.244 41.6252 17.5454 42.3745 17.0391 43.2858C16.5328 44.197 16.2797 45.321 16.2797 46.6575C16.2797 49.1281 17.2416 51.0418 19.1654 52.3986C21.0892 53.7554 23.3674 54.4338 26 54.4338C29.8881 54.4338 33.1282 53.4111 35.7203 51.3658C38.3124 49.3205 39.6084 46.536 39.6084 43.0124C39.6084 40.2988 39.3857 37.9598 38.9402 35.9955C38.4947 34.0312 37.9884 32.5732 37.4214 31.6214C36.8543 30.6696 36.2063 29.4546 35.4773 27.9763C34.7483 26.498 34.1813 24.9488 33.7762 23.3288Z" fill="white"/>
</svg>
