<svg width="64" height="63" viewBox="0 0 64 63" fill="none" xmlns="http://www.w3.org/2000/svg">
<path d="M60.2621 2.84307C58.4428 1.02429 55.9756 0.00256597 53.4031 0.00256597C50.8306 0.00256597 48.3634 1.02429 46.5441 2.84307L3.85699 45.5301C2.93039 46.4251 2.1913 47.4956 1.68285 48.6792C1.17439 49.8629 0.906763 51.1359 0.895569 52.4241C0.884375 53.7123 1.12984 54.9898 1.61765 56.1821C2.10545 57.3744 2.82583 58.4576 3.73674 59.3685C4.64765 60.2794 5.73085 60.9997 6.92314 61.4876C8.11544 61.9754 9.39294 62.2208 10.6811 62.2096C11.9693 62.1984 13.2423 61.9308 14.426 61.4224C15.6096 60.9139 16.6801 60.1748 17.5751 59.2482L60.2621 16.5611C62.0809 14.7418 63.1026 12.2746 63.1026 9.7021C63.1026 7.12958 62.0809 4.66239 60.2621 2.84307ZM54.2071 14.3868C51.8302 16.7624 49.6571 17.136 47.9096 17.4355C46.3403 17.7059 45.2052 17.9 43.7015 19.4037C42.1977 20.9075 42.0037 22.0425 41.7333 23.613C41.4325 25.3593 41.0602 27.5337 38.6833 29.9093C36.3064 32.285 34.1333 32.6585 32.387 32.9593C30.8165 33.2285 29.6827 33.4225 28.1789 34.9263C26.6752 36.43 26.4811 37.5639 26.2107 39.1344C25.9112 40.8806 25.5389 43.055 23.162 45.4307C20.7851 47.8064 18.6107 48.1811 16.8644 48.4806C15.2952 48.7511 14.1601 48.9451 12.6563 50.4489C12.2924 50.8128 11.7988 51.0172 11.2842 51.0172C10.7695 51.0172 10.2759 50.8128 9.91201 50.4489C9.54808 50.0849 9.34363 49.5914 9.34363 49.0767C9.34363 48.562 9.54808 48.0684 9.91201 47.7045C12.2889 45.3288 14.4621 44.9553 16.2083 44.6558C17.7849 44.3866 18.9127 44.1925 20.4176 42.6876C21.9226 41.1826 22.1154 40.0499 22.3846 38.4795C22.6854 36.7332 23.0577 34.5588 25.4346 32.1832C27.8115 29.8075 29.9846 29.434 31.7309 29.1344C33.3074 28.8652 34.4352 28.67 35.939 27.1662C37.4427 25.6625 37.6368 24.5274 37.9084 22.9569C38.208 21.2106 38.5803 19.0363 40.9571 16.6606C43.334 14.2849 45.5072 13.9102 47.2535 13.6106C48.8239 13.3402 49.9578 13.1474 51.4628 11.6424C51.8267 11.2785 52.3203 11.0741 52.8349 11.0741C53.3496 11.0741 53.8432 11.2785 54.2071 11.6424C54.571 12.0063 54.7755 12.4999 54.7755 13.0146C54.7755 13.5293 54.571 14.0228 54.2071 14.3868ZM4.82715 39.0713L40.0852 3.81323L38.6858 2.41256C35.654 -0.619196 30.9427 -0.820504 28.1607 1.96143L2.97536 27.1468C0.193419 29.9287 0.395941 34.6401 3.42648 37.6706L4.82715 39.0713ZM59.292 23.02L24.0339 58.2781L25.4334 59.6787C28.4651 62.7105 33.1765 62.9118 35.9584 60.1298L61.1438 34.9445C63.9257 32.1625 63.7232 27.4512 60.6926 24.4194L59.292 23.02Z" fill="white"/>
</svg>
