<svg width="64" height="63" viewBox="0 0 64 63" fill="none" xmlns="http://www.w3.org/2000/svg">
<path d="M60.262 2.84307C58.4426 1.02429 55.9754 0.00256597 53.4029 0.00256597C50.8304 0.00256597 48.3632 1.02429 46.5439 2.84307L3.85681 45.5301C2.9302 46.4251 2.19111 47.4956 1.68266 48.6792C1.17421 49.8629 0.90658 51.1359 0.895386 52.4241C0.884192 53.7123 1.12966 54.9898 1.61746 56.1821C2.10527 57.3744 2.82564 58.4576 3.73655 59.3685C4.64746 60.2794 5.73067 60.9997 6.92296 61.4876C8.11525 61.9754 9.39276 62.2208 10.6809 62.2096C11.9691 62.1984 13.2421 61.9308 14.4258 61.4224C15.6094 60.9139 16.6799 60.1748 17.5749 59.2482L60.262 16.5611C62.0807 14.7418 63.1025 12.2746 63.1025 9.7021C63.1025 7.12958 62.0807 4.66239 60.262 2.84307ZM54.2069 14.3868C51.83 16.7624 49.6569 17.136 47.9094 17.4355C46.3401 17.7059 45.2051 17.9 43.7013 19.4037C42.1976 20.9075 42.0035 22.0425 41.7331 23.613C41.4323 25.3593 41.06 27.5337 38.6832 29.9093C36.3063 32.285 34.1331 32.6585 32.3868 32.9593C30.8164 33.2285 29.6825 33.4225 28.1787 34.9263C26.675 36.43 26.481 37.5639 26.2105 39.1344C25.911 40.8806 25.5387 43.055 23.1618 45.4307C20.7849 47.8064 18.6105 48.1811 16.8642 48.4806C15.295 48.7511 14.1599 48.9451 12.6562 50.4489C12.2922 50.8128 11.7987 51.0172 11.284 51.0172C10.7693 51.0172 10.2757 50.8128 9.91182 50.4489C9.5479 50.0849 9.34345 49.5914 9.34345 49.0767C9.34345 48.562 9.5479 48.0684 9.91182 47.7045C12.2887 45.3288 14.4619 44.9553 16.2082 44.6558C17.7847 44.3866 18.9125 44.1925 20.4175 42.6876C21.9224 41.1826 22.1152 40.0499 22.3845 38.4795C22.6852 36.7332 23.0575 34.5588 25.4344 32.1832C27.8113 29.8075 29.9844 29.434 31.7307 29.1344C33.3073 28.8652 34.4351 28.67 35.9388 27.1662C37.4426 25.6625 37.6366 24.5274 37.9082 22.9569C38.2078 21.2106 38.5801 19.0363 40.957 16.6606C43.3339 14.2849 45.507 13.9102 47.2533 13.6106C48.8238 13.3402 49.9576 13.1474 51.4626 11.6424C51.8265 11.2785 52.3201 11.0741 52.8348 11.0741C53.3494 11.0741 53.843 11.2785 54.2069 11.6424C54.5709 12.0063 54.7753 12.4999 54.7753 13.0146C54.7753 13.5293 54.5709 14.0228 54.2069 14.3868ZM4.82697 39.0713L40.085 3.81323L38.6856 2.41256C35.6538 -0.619196 30.9425 -0.820504 28.1605 1.96143L2.97517 27.1468C0.193236 29.9287 0.395757 34.6401 3.4263 37.6706L4.82697 39.0713ZM59.2918 23.02L24.0337 58.2781L25.4332 59.6787C28.4649 62.7105 33.1763 62.9118 35.9582 60.1298L61.1436 34.9445C63.9255 32.1625 63.723 27.4512 60.6925 24.4194L59.2918 23.02Z" fill="white"/>
</svg>
