<svg width="53" height="63" viewBox="0 0 53 63" fill="none" xmlns="http://www.w3.org/2000/svg">
<path d="M26.4999 0C20.9108 0 16.1519 3.58437 14.3495 8.58628C9.36788 10.3886 5.76327 15.1374 5.76327 20.7367C5.76327 20.8987 5.75314 21.0607 5.76327 21.2227C2.76617 22.3061 0.579102 25.1614 0.579102 28.5129C0.579102 32.7757 4.09259 36.2892 8.35535 36.2892H9.32738L20.5057 58.3219C20.526 58.3624 20.5665 58.3624 20.5867 58.4029C21.6803 60.7013 23.9484 62.21 26.4999 62.21C29.0515 62.21 31.3196 60.7013 32.4131 58.4029H32.4941C32.5043 58.3826 32.484 58.3421 32.4941 58.3219L43.6725 36.2892H44.6445C48.9073 36.2892 52.4208 32.7757 52.4208 28.5129C52.4208 25.1108 50.1426 22.2656 47.0746 21.2227C46.3456 16.8283 43.3687 13.1427 39.3793 11.4214C38.5997 5.02216 33.1016 0 26.4999 0ZM26.4999 5.18417C29.9223 5.18417 32.8181 7.33074 33.8712 10.3683C27.8162 10.5607 22.7434 14.9754 21.5588 20.7367H10.9474C10.9474 16.4537 14.4407 12.9604 18.7237 12.9604C19.4426 12.9604 20.1615 13.1022 20.8298 13.2844C21.9739 11.7656 23.3003 10.3785 24.8799 9.3153C23.5535 8.5964 22.1055 8.16101 20.5867 7.93825C21.9942 6.25745 24.1104 5.18417 26.4999 5.18417ZM34.2762 15.5525C37.6985 15.5525 40.5944 17.6991 41.6474 20.7367H26.9049C27.958 17.6991 30.8538 15.5525 34.2762 15.5525ZM8.35535 25.9208H44.6445C46.1127 25.9208 47.2366 27.0447 47.2366 28.5129C47.2366 29.9811 46.1127 31.105 44.6445 31.105H17.7517L20.4247 36.2892H37.8403L27.877 56.0538L27.796 56.1348V56.2158C27.5631 56.7322 27.067 57.0258 26.4999 57.0258C25.9329 57.0258 25.4368 56.7322 25.2039 56.2158V56.1348L25.1229 56.0538L13.2965 32.563L12.5675 31.105H8.35535C6.88718 31.105 5.76327 29.9811 5.76327 28.5129C5.76327 27.0447 6.88718 25.9208 8.35535 25.9208Z" fill="white"/>
</svg>
