<svg width="53" height="63" viewBox="0 0 53 63" fill="none" xmlns="http://www.w3.org/2000/svg">
<path d="M26.5 0C20.9108 0 16.1519 3.58437 14.3496 8.58628C9.36794 10.3886 5.76333 15.1374 5.76333 20.7367C5.76333 20.8987 5.7532 21.0607 5.76333 21.2227C2.76623 22.3061 0.579163 25.1614 0.579163 28.5129C0.579163 32.7757 4.09265 36.2892 8.35541 36.2892H9.32744L20.5058 58.3219C20.5261 58.3624 20.5666 58.3624 20.5868 58.4029C21.6803 60.7013 23.9484 62.21 26.5 62.21C29.0516 62.21 31.3196 60.7013 32.4132 58.4029H32.4942C32.5043 58.3826 32.4841 58.3421 32.4942 58.3219L43.6725 36.2892H44.6446C48.9073 36.2892 52.4208 32.7757 52.4208 28.5129C52.4208 25.1108 50.1426 22.2656 47.0747 21.2227C46.3456 16.8283 43.3688 13.1427 39.3794 11.4214C38.5998 5.02216 33.1017 0 26.5 0ZM26.5 5.18417C29.9224 5.18417 32.8182 7.33074 33.8712 10.3683C27.8163 10.5607 22.7435 14.9754 21.5588 20.7367H10.9475C10.9475 16.4537 14.4407 12.9604 18.7237 12.9604C19.4426 12.9604 20.1615 13.1022 20.8298 13.2844C21.974 11.7656 23.3004 10.3785 24.8799 9.3153C23.5535 8.5964 22.1056 8.16101 20.5868 7.93825C21.9942 6.25745 24.1104 5.18417 26.5 5.18417ZM34.2762 15.5525C37.6986 15.5525 40.5944 17.6991 41.6475 20.7367H26.905C27.958 17.6991 30.8539 15.5525 34.2762 15.5525ZM8.35541 25.9208H44.6446C46.1127 25.9208 47.2367 27.0447 47.2367 28.5129C47.2367 29.9811 46.1127 31.105 44.6446 31.105H17.7517L20.4248 36.2892H37.8404L27.877 56.0538L27.796 56.1348V56.2158C27.5632 56.7322 27.067 57.0258 26.5 57.0258C25.933 57.0258 25.4368 56.7322 25.204 56.2158V56.1348L25.1229 56.0538L13.2966 32.563L12.5675 31.105H8.35541C6.88724 31.105 5.76333 29.9811 5.76333 28.5129C5.76333 27.0447 6.88724 25.9208 8.35541 25.9208Z" fill="white"/>
</svg>
