<svg width="56" height="57" viewBox="0 0 56 57" fill="none" xmlns="http://www.w3.org/2000/svg">
<path d="M1.86666 11.3669C0.835329 11.3669 0 12.2075 0 13.2453L0 15.1236C0 16.0064 0.61133 16.7436 1.42799 16.9455C1.56799 16.9784 1.71732 17.0019 1.86666 17.0019H3.73798C3.73798 17.1334 8.16662 39.9408 8.16662 39.9408C8.33462 40.8048 9.02995 41.4246 9.83728 41.4246H39.2278L43.9878 17.0019H46.0738V16.9455L46.6618 15.1236V11.3669H1.86666Z" fill="url(#paint0_linear_763_2700)"/>
<path d="M0 15.1238C0 16.0066 0.61133 16.7438 1.42799 16.9457H46.0784L46.6664 15.1238H0Z" fill="#F57C00"/>
<path d="M7.71877 20.9653L11.0368 35.9965C11.1301 36.4285 11.5081 36.7337 11.9467 36.7337H14.0001C14.5134 36.7337 14.9334 36.3111 14.9334 35.7946V20.7634C14.9334 20.2468 14.5134 19.8242 14.0001 19.8242H8.62877C8.03144 19.8242 7.58811 20.3783 7.71877 20.9653V20.9653Z" fill="#F57C00"/>
<path d="M37.0813 20.9653L33.7633 35.9965C33.67 36.4285 33.292 36.7337 32.8534 36.7337H30.8C30.2867 36.7337 29.8667 36.3111 29.8667 35.7946V20.7634C29.8667 20.2468 30.2867 19.8242 30.8 19.8242H36.1713C36.764 19.8242 37.212 20.3783 37.0813 20.9653Z" fill="#F57C00"/>
<path d="M19.7073 19.8242H25.0879C25.6432 19.8242 26.0772 20.3126 26.0166 20.8667L24.3599 35.8932C24.3086 36.3675 23.9073 36.729 23.4313 36.729H21.3686C20.8926 36.729 20.4913 36.3675 20.4399 35.8932L18.7786 20.862C18.718 20.3079 19.1519 19.8242 19.7073 19.8242V19.8242Z" fill="#F57C00"/>
<path opacity="0.2" d="M45.2664 12.7757V14.9029L45.0424 15.5978H43.9924C43.3251 15.5978 42.7464 16.0768 42.6204 16.7342L38.0798 40.0206H9.83728C9.72528 40.0206 9.58062 39.8891 9.53862 39.6731C8.35329 33.5733 5.26864 17.6781 5.11931 16.8141C5.02597 16.1238 4.44264 15.5978 3.73331 15.5978H1.86666C1.85732 15.5978 1.82466 15.5978 1.75932 15.5791C1.58666 15.5368 1.39999 15.3771 1.39999 15.1236V13.2453C1.39999 12.987 1.60999 12.7757 1.86666 12.7757H45.2664ZM46.6664 11.3669H1.86666C0.835329 11.3669 0 12.2075 0 13.2453L0 15.1236C0 16.0064 0.61133 16.7436 1.42799 16.9455C1.56799 16.9784 1.71732 17.0019 1.86666 17.0019H3.73798C3.73798 17.1334 8.16662 39.9408 8.16662 39.9408C8.33462 40.8048 9.02995 41.4246 9.83728 41.4246H39.2278L43.9924 17.0019H46.0784V16.9455L46.6664 15.1236V11.3669Z" fill="#424242"/>
<path opacity="0.2" d="M14.0001 20.7634V35.7946H11.9467L8.62877 20.7634H14.0001ZM14.0001 19.8242H8.62877C8.03144 19.8242 7.58811 20.383 7.71877 20.9653L11.0368 35.9965C11.1301 36.4285 11.5081 36.7337 11.9467 36.7337H14.0001C14.5134 36.7337 14.9334 36.3111 14.9334 35.7946V20.7634C14.9334 20.2421 14.5134 19.8242 14.0001 19.8242Z" fill="#424242"/>
<path opacity="0.2" d="M36.1713 20.7634L32.8534 35.7946H30.8V20.7634H36.1713ZM36.1713 19.8242H30.8C30.2867 19.8242 29.8667 20.2468 29.8667 20.7634V35.7946C29.8667 36.3111 30.2867 36.7337 30.8 36.7337H32.8534C33.292 36.7337 33.67 36.4285 33.7633 35.9965L37.0813 20.9653C37.212 20.3783 36.764 19.8242 36.1713 19.8242V19.8242Z" fill="#424242"/>
<path opacity="0.2" d="M25.0879 20.7634L23.4266 35.7946H21.3639L19.7026 20.7634H25.0879ZM25.0879 19.8242H19.7073C19.1519 19.8242 18.718 20.3126 18.7786 20.8667L20.4399 35.8979C20.4913 36.3722 20.8926 36.7337 21.3686 36.7337H23.4313C23.9073 36.7337 24.3086 36.3722 24.3599 35.8979L26.0212 20.8667C26.0772 20.3079 25.6479 19.8242 25.0879 19.8242V19.8242Z" fill="#424242"/>
<path d="M48.7806 1.79205C47.6792 2.16302 46.8252 3.05052 46.4939 4.16811L35.546 40.8891C35.4106 41.3493 35.4526 41.8424 35.6626 42.2697L37.3706 45.707C37.6833 46.3315 37.2306 47.0688 36.5353 47.0688H3.73346C2.64146 47.0688 1.7688 48.0126 1.87613 49.1302C1.96947 50.1069 2.83746 50.8254 3.81279 50.8254H40.9966C41.4493 50.8254 41.9066 50.6892 42.2566 50.3981C42.9473 49.8158 43.1153 48.8673 42.7373 48.1065L40.1006 42.805C39.6059 41.8142 39.5079 40.6684 39.8253 39.6072L49.9006 5.80225C49.9706 5.55807 50.1386 5.36554 50.3579 5.24814L48.8086 1.78735L48.7806 1.79205V1.79205Z" fill="url(#paint1_linear_763_2700)"/>
<path d="M55.743 1.02217C55.2996 0.24267 54.343 -0.0766433 53.4983 0.209799L48.813 1.78289L50.3623 5.24368C50.409 5.2202 50.451 5.19202 50.5023 5.17794L54.721 3.75981C55.8223 3.38884 56.3543 2.09281 55.743 1.02217V1.02217Z" fill="#F57C00"/>
<path opacity="0.2" d="M54.1192 1.0456C54.4645 1.0456 54.7772 1.21465 54.9312 1.487C55.1319 1.83919 55.0619 2.14911 55.0012 2.30877C54.8985 2.57173 54.6885 2.77834 54.4225 2.86756L50.2039 4.28569C50.0826 4.32795 49.9939 4.37491 49.9192 4.41717C49.4712 4.65666 49.1492 5.0511 49.0046 5.53007L38.9339 39.3303C38.5466 40.6263 38.6679 42.0069 39.2653 43.2184L41.9019 48.5199C42.0979 48.9097 41.9953 49.384 41.6546 49.6704C41.4959 49.8066 41.2579 49.8817 40.9966 49.8817H3.81279C3.29013 49.8817 2.84679 49.5108 2.8048 49.0365C2.7768 48.7641 2.86546 48.5059 3.04279 48.3086C3.22013 48.1114 3.46746 48.0034 3.73346 48.0034H36.5353C37.1886 48.0034 37.7813 47.67 38.1219 47.1112C38.4626 46.5524 38.4953 45.8715 38.2059 45.2846L36.498 41.8472C36.3906 41.6312 36.372 41.3871 36.4373 41.157L47.3852 4.43596C47.6326 3.6095 48.2626 2.95678 49.0746 2.68443L49.1026 2.67504L53.7879 1.10195C53.8999 1.06438 54.0072 1.0456 54.1192 1.0456M54.1192 0.106445C53.9092 0.106445 53.6992 0.139316 53.4939 0.209752L48.8086 1.78284L48.7806 1.79223C47.6792 2.1632 46.8252 3.0507 46.4939 4.1683L35.546 40.8893C35.4106 41.3495 35.4526 41.8425 35.6626 42.2699L37.3706 45.7072C37.6833 46.3317 37.2306 47.069 36.5353 47.069H3.73346C2.64146 47.069 1.7688 48.0128 1.87613 49.1304C1.96947 50.1071 2.83746 50.8256 3.81279 50.8256H40.9966C41.4493 50.8256 41.9066 50.6894 42.2566 50.3983C42.9473 49.816 43.1153 48.8674 42.7373 48.1067L40.1006 42.8052C39.6059 41.8144 39.5079 40.6686 39.8253 39.6074L49.9006 5.80243C49.9706 5.55825 50.1386 5.36572 50.3579 5.24833C50.4046 5.22485 50.4465 5.19667 50.4979 5.18258L54.7165 3.76446C55.8132 3.39349 56.3452 2.09746 55.7385 1.02682C55.4072 0.430454 54.7772 0.106445 54.1192 0.106445V0.106445Z" fill="#424242"/>
<path d="M11.2001 56.4559C13.262 56.4559 14.9334 54.774 14.9334 52.6993C14.9334 50.6245 13.262 48.9426 11.2001 48.9426C9.13826 48.9426 7.4668 50.6245 7.4668 52.6993C7.4668 54.774 9.13826 56.4559 11.2001 56.4559Z" fill="#37474F"/>
<path d="M35.4662 56.4559C37.5281 56.4559 39.1995 54.774 39.1995 52.6993C39.1995 50.6245 37.5281 48.9426 35.4662 48.9426C33.4044 48.9426 31.7329 50.6245 31.7329 52.6993C31.7329 54.774 33.4044 56.4559 35.4662 56.4559Z" fill="#37474F"/>
<path d="M12.1335 54.5776H10.2668C9.75349 54.5776 9.3335 54.1549 9.3335 53.6384V48.9426H13.0668V53.6384C13.0668 54.1549 12.6468 54.5776 12.1335 54.5776Z" fill="#B0BEC5"/>
<path d="M11.1999 52.6994C11.7154 52.6994 12.1333 52.2789 12.1333 51.7602C12.1333 51.2415 11.7154 50.821 11.1999 50.821C10.6845 50.821 10.2666 51.2415 10.2666 51.7602C10.2666 52.2789 10.6845 52.6994 11.1999 52.6994Z" fill="#FAFAFA" stroke="#757575" stroke-width="1.12394" stroke-miterlimit="10"/>
<path d="M36.4001 54.5776H34.5334C34.0201 54.5776 33.6001 54.1549 33.6001 53.6384V48.9426H37.3334V53.6384C37.3334 54.1549 36.9134 54.5776 36.4001 54.5776Z" fill="#B0BEC5"/>
<path d="M35.4665 52.6994C35.982 52.6994 36.3999 52.2789 36.3999 51.7602C36.3999 51.2415 35.982 50.821 35.4665 50.821C34.9511 50.821 34.5332 51.2415 34.5332 51.7602C34.5332 52.2789 34.9511 52.6994 35.4665 52.6994Z" fill="#FAFAFA" stroke="#757575" stroke-width="1.12394" stroke-miterlimit="10"/>
<defs>
<linearGradient id="paint0_linear_763_2700" x1="23.3327" y1="10.6067" x2="23.3327" y2="44.0458" gradientUnits="userSpaceOnUse">
<stop stop-color="#FFA726"/>
<stop offset="1" stop-color="#FB8C00"/>
</linearGradient>
<linearGradient id="paint1_linear_763_2700" x1="26.1137" y1="-7.12899" x2="26.1137" y2="58.827" gradientUnits="userSpaceOnUse">
<stop stop-color="#90A4AE"/>
<stop offset="1" stop-color="#607D8B"/>
</linearGradient>
</defs>
</svg>
