<svg width="60" height="65" viewBox="0 0 60 65" fill="none" xmlns="http://www.w3.org/2000/svg">
<path d="M56.8698 5.16775C48.4497 1.83604 38.9103 0 30.0056 0C20.8384 0 11.2846 1.8072 3.09815 5.08553C0.170292 6.27254 -0.333069 8.36531 0.171734 9.92588L0.758748 11.3941C0.873916 11.6817 1.04579 11.9431 1.26412 12.1628C1.48246 12.3825 1.74278 12.556 2.02959 12.6729C2.3164 12.7899 2.62382 12.8479 2.93352 12.8435C3.24323 12.8392 3.54889 12.7725 3.83228 12.6475C5.38996 11.961 7.28369 11.1273 7.72648 10.9485C14.074 8.31339 21.8062 6.92302 30.0691 6.92302C38.3579 6.92302 45.6589 8.2557 52.39 10.9975C53.0275 11.2571 54.5362 11.9235 56.1645 12.6504C56.4473 12.7767 56.7527 12.8448 57.0623 12.8506C57.372 12.8564 57.6797 12.7998 57.967 12.6842C58.2544 12.5686 58.5155 12.3963 58.7349 12.1777C58.9542 11.959 59.1273 11.6984 59.2438 11.4114L59.7804 10.0961L59.8294 9.96626C60.327 8.49368 59.8496 6.35331 56.8698 5.16775V5.16775Z" fill="white"/>
<path d="M52.1621 15.7008C45.5982 13.0571 37.5228 11.5383 30.0056 11.5383C22.4202 11.5433 14.9015 12.9562 7.83174 15.7051C7.7553 15.7354 7.53463 15.832 7.21299 15.9763C6.93492 16.1009 6.68429 16.2794 6.47555 16.5014C6.26682 16.7234 6.10412 16.9845 5.99685 17.2697C5.88957 17.5549 5.83985 17.8586 5.85054 18.1631C5.86124 18.4677 5.93214 18.767 6.05916 19.044C6.63608 20.3003 7.4178 22.0123 8.29472 23.932C13.0413 34.3266 21.8783 53.6534 25.9239 62.0187C26.2986 62.7991 26.887 63.4572 27.6207 63.9167C28.3544 64.3762 29.2033 64.6183 30.0691 64.6148C30.9362 64.6182 31.7865 64.3752 32.5209 63.9141C33.2553 63.4529 33.8435 62.7926 34.2171 62.01L34.2257 61.9913L54.0285 19.0729C54.1595 18.792 54.2323 18.4876 54.2427 18.1779C54.253 17.8681 54.2007 17.5595 54.0887 17.2705C53.9768 16.9815 53.8075 16.7182 53.5912 16.4963C53.3749 16.2743 53.1159 16.0984 52.8299 15.9792C52.504 15.8421 52.2746 15.7469 52.1809 15.7094L52.1621 15.7008ZM21.1384 27.6819C20.2019 27.743 19.2691 27.5172 18.4643 27.0345C17.6595 26.5518 17.0209 25.8353 16.6338 24.9805C16.2466 24.1256 16.1293 23.173 16.2973 22.2498C16.4654 21.3265 16.9109 20.4764 17.5745 19.8128C18.2381 19.1493 19.0882 18.7037 20.0114 18.5357C20.9347 18.3676 21.8873 18.485 22.7421 18.8721C23.597 19.2593 24.3135 19.8978 24.7962 20.7026C25.2788 21.5074 25.5047 22.4402 25.4436 23.3767C25.3707 24.4946 24.8937 25.5478 24.1016 26.3399C23.3094 27.1321 22.2562 27.6091 21.1384 27.6819ZM30.369 46.1433C29.4326 46.2044 28.4998 45.9785 27.695 45.4959C26.8902 45.0132 26.2516 44.2967 25.8645 43.4418C25.4773 42.587 25.3599 41.6344 25.528 40.7112C25.6961 39.7879 26.1416 38.9378 26.8052 38.2742C27.4688 37.6106 28.3189 37.1651 29.2421 36.997C30.1654 36.829 31.118 36.9463 31.9728 37.3335C32.8277 37.7207 33.5442 38.3592 34.0269 39.164C34.5095 39.9688 34.7354 40.9016 34.6743 41.8381C34.6014 42.956 34.1244 44.0092 33.3323 44.8013C32.5401 45.5934 31.4869 46.0704 30.369 46.1433ZM39.5997 29.9896C38.6633 30.0507 37.7305 29.8248 36.9257 29.3422C36.1209 28.8595 35.4823 28.143 35.0952 27.2881C34.708 26.4333 34.5906 25.4807 34.7587 24.5574C34.9268 23.6342 35.3723 22.7841 36.0359 22.1205C36.6995 21.4569 37.5496 21.0114 38.4728 20.8433C39.3961 20.6753 40.3487 20.7926 41.2035 21.1798C42.0584 21.5669 42.7749 22.2055 43.2575 23.0103C43.7402 23.8151 43.9661 24.7479 43.905 25.6844C43.8321 26.8022 43.3551 27.8555 42.563 28.6476C41.7708 29.4397 40.7176 29.9167 39.5997 29.9896V29.9896Z" fill="white"/>
</svg>
