<svg width="135" height="135" viewBox="0 0 135 135" fill="none" xmlns="http://www.w3.org/2000/svg">
<path d="M4.49533 26.9502C2.01166 26.9502 0 28.9619 0 31.4455L0 35.9409C0 38.0537 1.47222 39.8181 3.43893 40.3013C3.77608 40.38 4.1357 40.4362 4.49533 40.4362H9.00189C9.00189 40.7509 19.6671 95.3354 19.6671 95.3354C20.0716 97.4032 21.7461 98.8867 23.6904 98.8867H94.4693L105.932 40.4362H110.956V40.3013L112.372 35.9409V26.9502H4.49533Z" fill="url(#paint0_linear_763_1252)"/>
<path d="M0 35.9409C0 38.0537 1.47222 39.8181 3.43893 40.3014H110.967L112.383 35.9409H0Z" fill="#F57C00"/>
<path d="M18.588 49.9213L26.5785 85.8952C26.8032 86.9291 27.7135 87.6596 28.7699 87.6596H33.7148C34.951 87.6596 35.9625 86.6482 35.9625 85.4119V49.4381C35.9625 48.2019 34.951 47.1904 33.7148 47.1904H20.7795C19.341 47.1904 18.2734 48.5165 18.588 49.9213Z" fill="#F57C00"/>
<path d="M89.2997 49.9213L81.3093 85.8952C81.0845 86.9291 80.1742 87.6596 79.1178 87.6596H74.173C72.9367 87.6596 71.9253 86.6482 71.9253 85.4119V49.4381C71.9253 48.2019 72.9367 47.1904 74.173 47.1904H87.1083C88.5355 47.1904 89.6144 48.5165 89.2997 49.9213Z" fill="#F57C00"/>
<path d="M47.4593 47.1904H60.4171C61.7544 47.1904 62.7996 48.3592 62.6535 49.6853L58.6639 85.648C58.5403 86.783 57.5738 87.6484 56.4275 87.6484H51.4601C50.3138 87.6484 49.3473 86.783 49.2237 85.648L45.2229 49.6741C45.0768 48.348 46.1219 47.1904 47.4593 47.1904Z" fill="#F57C00"/>
<path opacity="0.2" d="M109.012 30.3217V35.4126L108.472 37.0759H105.944C104.337 37.0759 102.943 38.2222 102.64 39.7956L91.7047 95.5264H23.6904C23.4207 95.5264 23.0723 95.2117 22.9711 94.6948C20.1166 80.0962 12.6881 42.0545 12.3284 39.9866C12.1037 38.3346 10.6989 37.0759 8.99065 37.0759H4.49533C4.47285 37.0759 4.39418 37.0759 4.23685 37.031C3.82103 36.9298 3.3715 36.5477 3.3715 35.9409V31.4455C3.3715 30.8274 3.87722 30.3217 4.49533 30.3217H109.012ZM112.383 26.9502H4.49533C2.01166 26.9502 0 28.9619 0 31.4455L0 35.9409C0 38.0537 1.47222 39.8181 3.43893 40.3013C3.77608 40.38 4.1357 40.4362 4.49533 40.4362H9.00189C9.00189 40.7509 19.6671 95.3354 19.6671 95.3354C20.0716 97.4032 21.7461 98.8867 23.6904 98.8867H94.4693L105.944 40.4362H110.967V40.3013L112.383 35.9409V26.9502Z" fill="#424242"/>
<path opacity="0.2" d="M33.7148 49.4381V85.4119H28.7699L20.7795 49.4381H33.7148ZM33.7148 47.1904H20.7795C19.341 47.1904 18.2734 48.5278 18.588 49.9213L26.5785 85.8952C26.8032 86.9291 27.7135 87.6596 28.7699 87.6596H33.7148C34.951 87.6596 35.9625 86.6482 35.9625 85.4119V49.4381C35.9625 48.1906 34.951 47.1904 33.7148 47.1904Z" fill="#424242"/>
<path opacity="0.2" d="M87.1083 49.4381L79.1178 85.4119H74.173V49.4381H87.1083ZM87.1083 47.1904H74.173C72.9367 47.1904 71.9253 48.2019 71.9253 49.4381V85.4119C71.9253 86.6482 72.9367 87.6596 74.173 87.6596H79.1178C80.1742 87.6596 81.0845 86.9291 81.3093 85.8952L89.2997 49.9213C89.6144 48.5165 88.5355 47.1904 87.1083 47.1904Z" fill="#424242"/>
<path opacity="0.2" d="M60.4171 49.4381L56.4162 85.4119H51.4489L47.4481 49.4381H60.4171ZM60.4171 47.1904H47.4593C46.1219 47.1904 45.0768 48.3592 45.2229 49.6853L49.2237 85.6592C49.3473 86.7943 50.3138 87.6596 51.4601 87.6596H56.4275C57.5738 87.6596 58.5403 86.7943 58.6639 85.6592L62.6647 49.6853C62.7996 48.348 61.7657 47.1904 60.4171 47.1904Z" fill="#424242"/>
<path d="M117.474 4.03516C114.822 4.92299 112.765 7.04703 111.967 9.72175L85.6021 97.6054C85.2762 98.7068 85.3773 99.8868 85.8831 100.909L89.9963 109.136C90.7493 110.631 89.6591 112.395 87.9846 112.395H8.99049C6.36072 112.395 4.25916 114.654 4.51764 117.329C4.7424 119.666 6.83273 121.386 9.18154 121.386H98.7285C99.8186 121.386 100.92 121.06 101.763 120.363C103.426 118.969 103.831 116.699 102.92 114.879L96.5707 102.191C95.3794 99.8194 95.1434 97.0772 95.9076 94.5373L120.171 13.6327C120.34 13.0483 120.744 12.5875 121.273 12.3066L117.541 4.02393L117.474 4.03516Z" fill="url(#paint1_linear_763_1252)"/>
<path d="M134.242 2.19217C133.174 0.326608 130.87 -0.437598 128.836 0.247939L117.553 4.01278L121.284 12.2954C121.396 12.2392 121.498 12.1718 121.621 12.1381L131.781 8.74411C134.433 7.85628 135.714 4.75451 134.242 2.19217Z" fill="#F57C00"/>
<path opacity="0.2" d="M130.331 2.2484C131.162 2.2484 131.915 2.65298 132.286 3.3048C132.769 4.14767 132.601 4.8894 132.455 5.2715C132.207 5.90085 131.702 6.39534 131.061 6.60886L120.902 10.0028C120.609 10.104 120.396 10.2164 120.216 10.3175C119.137 10.8907 118.362 11.8347 118.013 12.981L93.7611 93.8744C92.8283 96.9762 93.1205 100.28 94.559 103.18L100.909 115.868C101.381 116.801 101.133 117.936 100.313 118.621C99.931 118.947 99.3578 119.127 98.7285 119.127H9.18154C7.92285 119.127 6.85521 118.239 6.75406 117.104C6.68663 116.452 6.90016 115.834 7.32722 115.362C7.75427 114.89 8.3499 114.632 8.99049 114.632H87.9846C89.558 114.632 90.9853 113.834 91.8057 112.496C92.6261 111.159 92.7047 109.529 92.0079 108.125L87.8947 99.8981C87.6362 99.3812 87.5913 98.7968 87.7486 98.2461L114.114 10.3625C114.709 8.38452 116.227 6.82239 118.182 6.17057L118.249 6.14809L129.533 2.38326C129.802 2.29335 130.061 2.2484 130.331 2.2484ZM130.331 0.000732422C129.825 0.000732422 129.319 0.0794004 128.825 0.247975L117.541 4.01281L117.474 4.03529C114.822 4.92312 112.765 7.04716 111.967 9.72188L85.6021 97.6055C85.2762 98.7069 85.3773 99.8869 85.8831 100.91L89.9963 109.136C90.7493 110.631 89.6591 112.395 87.9846 112.395H8.99049C6.36072 112.395 4.25916 114.654 4.51764 117.329C4.7424 119.666 6.83273 121.386 9.18154 121.386H98.7285C99.8186 121.386 100.92 121.06 101.763 120.363C103.426 118.97 103.831 116.699 102.92 114.879L96.5707 102.191C95.3794 99.8195 95.1434 97.0773 95.9076 94.5375L120.171 13.6328C120.34 13.0484 120.744 12.5876 121.273 12.3067C121.385 12.2505 121.486 12.1831 121.61 12.1494L131.769 8.75538C134.41 7.86756 135.691 4.76578 134.23 2.20344C133.432 0.776176 131.915 0.000732422 130.331 0.000732422Z" fill="#424242"/>
<path d="M26.9719 134.861C31.9373 134.861 35.9625 130.835 35.9625 125.87C35.9625 120.905 31.9373 116.879 26.9719 116.879C22.0065 116.879 17.9812 120.905 17.9812 125.87C17.9812 130.835 22.0065 134.861 26.9719 134.861Z" fill="#37474F"/>
<path d="M85.4113 134.861C90.3767 134.861 94.402 130.835 94.402 125.87C94.402 120.905 90.3767 116.879 85.4113 116.879C80.4459 116.879 76.4207 120.905 76.4207 125.87C76.4207 130.835 80.4459 134.861 85.4113 134.861Z" fill="#37474F"/>
<path d="M29.2196 130.365H24.7242C23.488 130.365 22.4766 129.354 22.4766 128.118V116.879H31.4672V128.118C31.4672 129.354 30.4558 130.365 29.2196 130.365Z" fill="#B0BEC5"/>
<path d="M26.972 125.87C28.2134 125.87 29.2197 124.864 29.2197 123.622C29.2197 122.381 28.2134 121.375 26.972 121.375C25.7307 121.375 24.7244 122.381 24.7244 123.622C24.7244 124.864 25.7307 125.87 26.972 125.87Z" fill="#FAFAFA" stroke="#757575" stroke-width="1.12394" stroke-miterlimit="10"/>
<path d="M87.659 130.365H83.1637C81.9275 130.365 80.916 129.354 80.916 128.118V116.879H89.9067V128.118C89.9067 129.354 88.8952 130.365 87.659 130.365Z" fill="#B0BEC5"/>
<path d="M85.4112 125.87C86.6526 125.87 87.6589 124.864 87.6589 123.622C87.6589 122.381 86.6526 121.375 85.4112 121.375C84.1699 121.375 83.1636 122.381 83.1636 123.622C83.1636 124.864 84.1699 125.87 85.4112 125.87Z" fill="#FAFAFA" stroke="#757575" stroke-width="1.12394" stroke-miterlimit="10"/>
<defs>
<linearGradient id="paint0_linear_763_1252" x1="56.1905" y1="25.1307" x2="56.1905" y2="105.16" gradientUnits="userSpaceOnUse">
<stop stop-color="#FFA726"/>
<stop offset="1" stop-color="#FB8C00"/>
</linearGradient>
<linearGradient id="paint1_linear_763_1252" x1="62.8872" y1="-17.3154" x2="62.8872" y2="140.536" gradientUnits="userSpaceOnUse">
<stop stop-color="#90A4AE"/>
<stop offset="1" stop-color="#607D8B"/>
</linearGradient>
</defs>
</svg>
