<svg width="21" height="27" viewBox="0 0 21 27" fill="none" xmlns="http://www.w3.org/2000/svg">
<path d="M0.866668 3.38887H19.3556C19.9938 3.38887 20.2222 5.98887 20.2222 5.98887H0C0 5.98887 0.228508 3.38887 0.866668 3.38887ZM8.37782 0.5H11.8445C12.1636 0.5 13 1.33645 13 1.65553C13 1.97461 12.1636 2.81114 11.8445 2.81114H8.37782C8.05874 2.81114 7.22221 1.97461 7.22221 1.65553C7.22221 1.33645 8.05874 0.5 8.37782 0.5ZM2.6 6.85554H17.6222C18.2605 6.85554 18.7778 7.37292 18.7778 8.01115L17.6222 25.3445C17.6222 25.9827 17.1049 26.5 16.4667 26.5H3.75561C3.11738 26.5 2.6 25.9827 2.6 25.3445L1.44447 8.01115C1.44447 7.37292 1.96184 6.85554 2.6 6.85554ZM4.33334 9.16668L4.62228 24.1889H6.64448L6.35561 9.16668H4.33334ZM8.95562 9.16668V24.1889H11.2667V9.16668H8.95562ZM13.8667 9.16668L13.5778 24.1889H15.6L15.889 9.16668H13.8667Z" fill="#BB0707"/>
</svg>
